<?xml version="1.0" standalone="no"?>
<!DOCTYPE svg PUBLIC "-//W3C//DTD SVG 20010904//EN"
 "http://www.w3.org/TR/2001/REC-SVG-20010904/DTD/svg10.dtd">
<svg version="1.0" xmlns="http://www.w3.org/2000/svg"
 width="400.000000pt" height="400.000000pt" viewBox="0 0 400.000000 400.000000"
 preserveAspectRatio="xMidYMid meet">
<metadata>
Created by potrace 1.14, written by Peter Selinger 2001-2017
</metadata>
<g transform="translate(0.000000,400.000000) scale(0.100000,-0.100000)"
fill="#000000" stroke="none">
<path d="M0 2000 l0 -2000 2000 0 2000 0 0 2000 0 2000 -2000 0 -2000 0 0
-2000z m2230 1135 l0 -455 455 0 455 0 0 -225 0 -225 -452 -2 -453 -3 -3 -908
-2 -907 -228 2 -227 3 -3 908 -2 907 -450 0 -450 0 0 225 0 225 450 0 450 0 0
448 c0 247 3 452 7 455 3 4 107 7 230 7 l223 0 0 -455z m-1470 -1190 c108 -53
203 -115 302 -194 74 -60 202 -189 248 -250 14 -18 32 -41 40 -50 31 -33 93
-135 145 -236 59 -114 113 -269 144 -410 20 -91 33 -284 24 -363 l-5 -43 -77
3 -76 3 -6 140 c-9 187 -15 221 -81 430 -16 51 -105 225 -148 290 -156 233
-361 417 -593 530 -60 30 -76 42 -71 54 3 9 11 32 16 51 11 39 36 90 44 90 2
0 45 -20 94 -45z m2622 -16 c35 -100 36 -95 -23 -123 -157 -73 -261 -147 -409
-295 -142 -141 -224 -255 -303 -420 -85 -179 -140 -414 -137 -586 1 -44 2 -86
1 -93 -1 -10 -21 -12 -78 -10 l-78 3 -3 110 c-10 338 129 720 363 1001 52 62
181 192 223 224 18 14 42 33 53 42 11 9 46 33 77 54 31 21 69 46 85 56 42 29
190 99 201 95 5 -2 18 -28 28 -58z"/>
</g>
</svg>
